<?xml version="1.0" encoding="utf-8"?>
<!-- Generator: Adobe Illustrator 23.1.1, SVG Export Plug-In . SVG Version: 6.00 Build 0)  -->
<svg version="1.1" id="Слой_1" xmlns="http://www.w3.org/2000/svg" xmlns:xlink="http://www.w3.org/1999/xlink" x="0px" y="0px"
	 viewBox="0 0 229 107.5" style="enable-background:new 0 0 229 107.5;" xml:space="preserve">
<style type="text/css">
	.st0{fill:#9B9B9B;}
	.st1{fill:#D7D7D7;}
	.st2{fill:#ED1C24;}
</style>
<title>plas_leghten</title>
<g id="Слой_2_1_">
	<g id="Слой_1-2">
		<g>
			<path class="st0" d="M9.4,68.3c0,3-1.3,4.7-4.7,4.7S0,71.3,0,68.3V0h31.1c4.3,0,7.4,0.7,10.8,3.8c4,3.8,4.4,7.2,4.4,12.3v12.8
				c0,4.8-0.4,8.2-3.8,12c-3.7,4.1-7.5,4.5-12.6,4.5H9.4V68.3z M9.4,36h20.8c5.5,0,6.8-1.4,6.8-6.8V16.1c0-5.4-1.2-6.8-6.8-6.8H9.4
				V36z"/>
			<path class="st0" d="M109.2,63.6c2.4,0,4.7,1.3,4.7,4.7s-2.2,4.7-4.7,4.7H67.6V4.7c0-3,1.3-4.7,4.7-4.7S77,1.7,77,4.7v58.9
				C77,63.6,109.2,63.6,109.2,63.6z"/>
			<path class="st0" d="M225.7,54.6c1.9,2.4,3.3,4.6,3.3,7.8c0,7-5.4,10.6-11.8,10.6h-20.6c-3.6,0-6.7-0.7-9.5-3
				c-2.7-2.1-4.3-5.3-4.4-8.7c0-3,1.7-5.6,5-5.6c2.5,0,4.4,2.1,4.4,4.5c0,0.1,0,0.2,0,0.2c0,2.8,1.5,3.2,4.1,3.2h20.4
				c0.8,0,3.1,0.3,3.1-1.1c0-0.8-1.3-2.2-1.7-2.7l-32.2-41.4c-2-2.5-3.1-4.4-3.1-7.7c0-3.7,1.9-7.1,5-9c2.6-1.7,4.8-1.7,7.8-1.7
				h19.9c3.4-0.2,6.7,0.9,9.3,3.1s4.2,5.5,4.4,8.9c0,3-1.5,5.4-4.9,5.4c-2.3,0.2-4.3-1.5-4.5-3.8c0-0.2,0-0.4,0-0.6
				c0-3.2-1.6-3.7-4.5-3.7h-19.9c-1,0-3.2-0.3-3.2,1.3c0,0.9,1,2,1.4,2.5L225.7,54.6z"/>
			<path class="st0" d="M143.5,3.1c0.7-2,2.7-3.3,4.8-3.1c3.1,0,4.2,1.5,4.9,3.1l18.1,41.2c0.7,1.5-1.9,3-4.5,3
				c-2.1,0.1-4.2-1-5.1-3l-3.5-7.3h-20l-3.6,7.3c-0.9,2-2.9,3.1-5.1,3c-2.6,0-5.2-1.6-4.5-3L143.5,3.1z M148.4,14.4h-0.2L140.9,31
				h14.7L148.4,14.4z"/>
		</g>
		<g>
			<path class="st1" d="M9.4,68.3c0,3-1.3,4.7-4.7,4.7S0,71.3,0,68.3V0h31.1c4.3,0,7.4,0.7,10.8,3.8c4,3.8,4.4,7.2,4.4,12.3v12.8
				c0,4.8-0.4,8.2-3.8,12c-3.7,4.1-7.5,4.5-12.6,4.5H9.4V68.3z M9.4,36h20.8c5.5,0,6.8-1.4,6.8-6.8V16.1c0-5.4-1.2-6.8-6.8-6.8H9.4
				V36z"/>
			<path class="st1" d="M109.2,63.6c2.4,0,4.7,1.3,4.7,4.7s-2.2,4.7-4.7,4.7H67.6V4.7c0-3,1.3-4.7,4.7-4.7S77,1.7,77,4.7v58.9
				C77,63.6,109.2,63.6,109.2,63.6z"/>
			<path class="st1" d="M225.7,54.6c1.9,2.4,3.3,4.6,3.3,7.8c0,7-5.4,10.6-11.8,10.6h-20.6c-3.6,0-6.7-0.7-9.5-3
				c-2.7-2.1-4.3-5.3-4.4-8.7c0-3,1.7-5.6,5-5.6c2.5,0,4.4,2.1,4.4,4.5c0,0.1,0,0.2,0,0.2c0,2.8,1.5,3.2,4.1,3.2h20.4
				c0.8,0,3.1,0.3,3.1-1.1c0-0.8-1.3-2.2-1.7-2.7l-32.2-41.4c-2-2.5-3.1-4.4-3.1-7.7c0-3.7,1.9-7.1,5-9c2.6-1.7,4.8-1.7,7.8-1.7
				h19.9c3.4-0.2,6.7,0.9,9.3,3.1s4.2,5.5,4.4,8.9c0,3-1.5,5.4-4.9,5.4c-2.3,0.2-4.3-1.5-4.5-3.8c0-0.2,0-0.4,0-0.6
				c0-3.2-1.6-3.7-4.5-3.7h-19.9c-1,0-3.2-0.3-3.2,1.3c0,0.9,1,2,1.4,2.5L225.7,54.6z"/>
			<path class="st1" d="M143.5,3.1c0.7-2,2.7-3.3,4.8-3.1c3.1,0,4.2,1.5,4.9,3.1l18.1,41.2c0.7,1.5-1.9,3-4.5,3
				c-2.1,0.1-4.2-1-5.1-3l-3.5-7.3h-20l-3.6,7.3c-0.9,2-2.9,3.1-5.1,3c-2.6,0-5.2-1.6-4.5-3L143.5,3.1z M148.4,14.4h-0.2L140.9,31
				h14.7L148.4,14.4z"/>
		</g>
		<path class="st2" d="M125.1,51.3c-0.7-0.7,1.9-1.5,4.5-1.5c2.9,0,4.4,0.8,5.1,1.5l3.6,3.5h20l3.5-3.5c0.7-0.7,2.2-1.5,5.1-1.5
			c2.6,0,5.2,0.8,4.5,1.5l-18.1,19.9c-0.7,0.8-1.8,1.5-4.9,1.5s-4-0.7-4.8-1.5L125.1,51.3z M155.6,57.8h-14.7l7.3,8h0.2L155.6,57.8z
			"/>
		<g>
			<path class="st2" d="M1.7,95.8c0.7-0.1,1.7-0.2,3-0.2c1.4,0,2.4,0.3,3,0.8c0.6,0.5,1.1,1.3,1.1,2.3s-0.3,1.8-0.9,2.3
				c-0.8,0.7-1.9,1-3.2,1c-0.3,0-0.6,0-0.8,0v3.5H1.7V95.8z M3.9,100.3c0.2,0,0.4,0.1,0.7,0.1c1.2,0,1.9-0.6,1.9-1.6
				c0-0.9-0.6-1.4-1.7-1.4c-0.5,0-0.8,0-0.9,0.1V100.3z"/>
			<path class="st2" d="M19.2,100.5c0,3.2-2,5.2-4.8,5.2c-2.9,0-4.6-2.2-4.6-5c0-3,1.9-5.2,4.8-5.2C17.5,95.5,19.2,97.8,19.2,100.5z
				 M12.1,100.6c0,1.9,0.9,3.3,2.4,3.3c1.5,0,2.4-1.4,2.4-3.3c0-1.8-0.8-3.3-2.4-3.3C13,97.3,12.1,98.7,12.1,100.6z"/>
			<path class="st2" d="M22.1,105.5l-2.3-9.9h2.4l0.7,4.1c0.2,1.2,0.4,2.4,0.6,3.4h0c0.2-1.1,0.4-2.3,0.6-3.5l0.8-4h2.4l0.8,4.2
				c0.2,1.2,0.4,2.2,0.5,3.3h0c0.1-1.1,0.4-2.3,0.6-3.4l0.8-4h2.3l-2.5,9.9h-2.4l-0.8-4.2c-0.2-1-0.4-1.9-0.5-3h0
				c-0.2,1.1-0.3,2-0.6,3l-0.9,4.2H22.1z"/>
			<path class="st2" d="M39.4,101.4h-3.6v2.3h4v1.8h-6.3v-9.9h6.1v1.8h-3.8v2h3.6V101.4z"/>
			<path class="st2" d="M41.3,95.8c0.7-0.1,1.8-0.2,3-0.2c1.5,0,2.5,0.2,3.2,0.8c0.6,0.5,0.9,1.2,0.9,2.1c0,1.3-0.9,2.1-1.7,2.4v0
				c0.7,0.3,1.1,0.9,1.3,1.8c0.3,1.1,0.6,2.4,0.8,2.8h-2.3c-0.2-0.3-0.4-1.1-0.7-2.3c-0.3-1.2-0.7-1.6-1.6-1.6h-0.7v3.9h-2.2V95.8z
				 M43.5,100.1h0.9c1.1,0,1.8-0.6,1.8-1.4c0-0.9-0.6-1.4-1.6-1.4c-0.5,0-0.8,0-1,0.1V100.1z"/>
			<path class="st2" d="M50,95.7h2.2v8h3.9v1.9H50V95.7z"/>
			<path class="st2" d="M59.7,95.7v9.9h-2.2v-9.9H59.7z"/>
			<path class="st2" d="M61.6,95.7h6v1.8h-3.8v2.3h3.5v1.8h-3.5v4h-2.2V95.7z"/>
			<path class="st2" d="M71.2,97.6h-2.6v-1.9h7.6v1.9h-2.7v8h-2.2V97.6z"/>
			<path class="st2" d="M79.6,95.7v9.9h-2.2v-9.9H79.6z"/>
			<path class="st2" d="M81.5,105.5v-9.9h2.6l2,3.6c0.6,1,1.2,2.3,1.6,3.4h0c-0.1-1.3-0.2-2.6-0.2-4.1v-2.9h2v9.9h-2.3l-2.1-3.8
				c-0.6-1.1-1.2-2.3-1.7-3.5l0,0c0.1,1.3,0.1,2.7,0.1,4.3v3H81.5z"/>
			<path class="st2" d="M99.8,105.1c-0.7,0.2-2,0.6-3.3,0.6c-1.8,0-3.1-0.5-4-1.3c-0.9-0.8-1.4-2.1-1.4-3.6c0-3.3,2.4-5.1,5.6-5.1
				c1.3,0,2.3,0.2,2.7,0.5L99,97.9c-0.5-0.2-1.2-0.4-2.3-0.4c-1.9,0-3.3,1.1-3.3,3.2c0,2,1.3,3.2,3.1,3.2c0.5,0,0.9-0.1,1.1-0.1
				v-2.1h-1.5v-1.7h3.7V105.1z"/>
			<path class="st2" d="M106.8,103l-0.7,2.5h-2.3l3-9.9h2.9l3.1,9.9h-2.4l-0.8-2.5H106.8z M109.3,101.3l-0.6-2.1
				c-0.2-0.6-0.4-1.3-0.5-1.9h0c-0.1,0.6-0.3,1.3-0.5,1.9l-0.6,2.1H109.3z"/>
			<path class="st2" d="M115.8,95.7v5.7c0,1.7,0.6,2.6,1.8,2.6c1.2,0,1.8-0.8,1.8-2.6v-5.7h2.2v5.5c0,3-1.5,4.5-4.1,4.5
				c-2.5,0-3.9-1.4-3.9-4.5v-5.5H115.8z"/>
			<path class="st2" d="M125.5,97.6h-2.6v-1.9h7.6v1.9h-2.7v8h-2.2V97.6z"/>
			<path class="st2" d="M140.2,100.5c0,3.2-2,5.2-4.8,5.2c-2.9,0-4.6-2.2-4.6-5c0-3,1.9-5.2,4.8-5.2
				C138.5,95.5,140.2,97.8,140.2,100.5z M133,100.6c0,1.9,0.9,3.3,2.4,3.3c1.5,0,2.4-1.4,2.4-3.3c0-1.8-0.8-3.3-2.4-3.3
				C133.9,97.3,133,98.7,133,100.6z"/>
			<path class="st2" d="M150,101.8c0-1.2-0.1-2.6-0.1-4h0c-0.3,1.3-0.7,2.7-1.1,3.8l-1.2,3.8h-1.7l-1.1-3.8
				c-0.3-1.2-0.7-2.6-0.9-3.8h0c-0.1,1.3-0.1,2.9-0.2,4.1l-0.2,3.7h-2.1l0.6-9.9h3l1,3.3c0.3,1.1,0.6,2.4,0.8,3.5h0
				c0.3-1.1,0.6-2.4,0.9-3.5l1.1-3.3h2.9l0.5,9.9h-2.2L150,101.8z"/>
			<path class="st2" d="M156.2,103l-0.7,2.5h-2.3l3-9.9h2.9l3.1,9.9h-2.4l-0.8-2.5H156.2z M158.7,101.3l-0.6-2.1
				c-0.2-0.6-0.4-1.3-0.5-1.9h0c-0.1,0.6-0.3,1.3-0.5,1.9l-0.6,2.1H158.7z"/>
			<path class="st2" d="M164.2,97.6h-2.6v-1.9h7.6v1.9h-2.7v8h-2.2V97.6z"/>
			<path class="st2" d="M172.6,95.7v9.9h-2.2v-9.9H172.6z"/>
			<path class="st2" d="M181.7,105.3c-0.4,0.2-1.3,0.4-2.5,0.4c-3.4,0-5.2-2.1-5.2-4.9c0-3.4,2.4-5.2,5.4-5.2c1.2,0,2,0.2,2.4,0.4
				l-0.5,1.8c-0.5-0.2-1.1-0.4-1.9-0.4c-1.8,0-3.1,1.1-3.1,3.3c0,2,1.2,3.2,3.2,3.2c0.7,0,1.4-0.1,1.9-0.3L181.7,105.3z"/>
			<path class="st2" d="M186.2,103.2c0.6,0.3,1.5,0.6,2.5,0.6c1,0,1.6-0.4,1.6-1.1c0-0.6-0.5-1-1.7-1.4c-1.6-0.6-2.7-1.5-2.7-2.9
				c0-1.7,1.4-3,3.7-3c1.1,0,1.9,0.2,2.5,0.5l-0.5,1.8c-0.4-0.2-1.1-0.5-2.1-0.5s-1.4,0.4-1.4,1c0,0.6,0.6,0.9,1.8,1.4
				c1.7,0.6,2.6,1.5,2.6,2.9c0,1.7-1.3,3.1-4,3.1c-1.1,0-2.2-0.3-2.8-0.6L186.2,103.2z"/>
			<path class="st2" d="M201.3,105.3c-0.4,0.2-1.3,0.4-2.5,0.4c-3.4,0-5.2-2.1-5.2-4.9c0-3.4,2.4-5.2,5.4-5.2c1.2,0,2,0.2,2.4,0.4
				l-0.5,1.8c-0.5-0.2-1.1-0.4-1.9-0.4c-1.8,0-3.1,1.1-3.1,3.3c0,2,1.2,3.2,3.2,3.2c0.7,0,1.4-0.1,1.9-0.3L201.3,105.3z"/>
			<path class="st2" d="M211.3,100.5c0,3.2-2,5.2-4.8,5.2c-2.9,0-4.6-2.2-4.6-5c0-3,1.9-5.2,4.8-5.2
				C209.7,95.5,211.3,97.8,211.3,100.5z M204.2,100.6c0,1.9,0.9,3.3,2.4,3.3c1.5,0,2.4-1.4,2.4-3.3c0-1.8-0.8-3.3-2.4-3.3
				C205.1,97.3,204.2,98.7,204.2,100.6z"/>
			<path class="st2" d="M212.8,95.8c0.7-0.1,1.8-0.2,3-0.2c1.5,0,2.5,0.2,3.2,0.8c0.6,0.5,0.9,1.2,0.9,2.1c0,1.3-0.9,2.1-1.7,2.4v0
				c0.7,0.3,1.1,0.9,1.3,1.8c0.3,1.1,0.6,2.4,0.8,2.8h-2.3c-0.2-0.3-0.4-1.1-0.7-2.3c-0.3-1.2-0.7-1.6-1.6-1.6H215v3.9h-2.2V95.8z
				 M215,100.1h0.9c1.1,0,1.8-0.6,1.8-1.4c0-0.9-0.6-1.4-1.6-1.4c-0.5,0-0.8,0-1,0.1V100.1z"/>
			<path class="st2" d="M227.3,101.4h-3.6v2.3h4v1.8h-6.3v-9.9h6.1v1.8h-3.8v2h3.6V101.4z"/>
		</g>
	</g>
</g>
</svg>
